<mxfile host="65bd71144e">
    <diagram id="jlh2k6xDNBYQ2HWET6Fo" name="Page-1">
        <mxGraphModel dx="2058" dy="3845" grid="1" gridSize="10" guides="1" tooltips="1" connect="1" arrows="1" fold="1" page="1" pageScale="1" pageWidth="850" pageHeight="1100" math="0" shadow="0">
            <root>
                <mxCell id="0"/>
                <mxCell id="1" parent="0"/>
                <mxCell id="19" style="edgeStyle=orthogonalEdgeStyle;html=1;fontSize=30;endArrow=block;endFill=1;curved=1;endSize=15;" edge="1" parent="1" source="5" target="18">
                    <mxGeometry relative="1" as="geometry">
                        <Array as="points">
                            <mxPoint x="80" y="60"/>
                            <mxPoint x="400" y="60"/>
                        </Array>
                    </mxGeometry>
                </mxCell>
                <mxCell id="5" value="" style="ellipse;whiteSpace=wrap;html=1;aspect=fixed;fontSize=20;" vertex="1" parent="1">
                    <mxGeometry x="40" y="120" width="80" height="80" as="geometry"/>
                </mxCell>
                <mxCell id="6" value="S" style="ellipse;whiteSpace=wrap;html=1;aspect=fixed;fontSize=40;" vertex="1" parent="1">
                    <mxGeometry x="45" y="125" width="70" height="70" as="geometry"/>
                </mxCell>
                <mxCell id="7" value="" style="ellipse;whiteSpace=wrap;html=1;aspect=fixed;fontSize=20;" vertex="1" parent="1">
                    <mxGeometry x="322.5" y="447.5" width="80" height="80" as="geometry"/>
                </mxCell>
                <mxCell id="8" value="R" style="ellipse;whiteSpace=wrap;html=1;aspect=fixed;fontSize=40;" vertex="1" parent="1">
                    <mxGeometry x="327.5" y="452.5" width="70" height="70" as="geometry"/>
                </mxCell>
                <mxCell id="9" value="Sender" style="text;html=1;strokeColor=none;fillColor=none;align=center;verticalAlign=middle;whiteSpace=wrap;rounded=0;fontSize=40;" vertex="1" parent="1">
                    <mxGeometry x="272.5" y="-60" width="180" height="30" as="geometry"/>
                </mxCell>
                <mxCell id="10" value="Receiver" style="text;html=1;strokeColor=none;fillColor=none;align=center;verticalAlign=middle;whiteSpace=wrap;rounded=0;fontSize=40;" vertex="1" parent="1">
                    <mxGeometry x="267.5" y="380" width="185" height="30" as="geometry"/>
                </mxCell>
                <mxCell id="20" style="edgeStyle=orthogonalEdgeStyle;curved=1;html=1;fontSize=30;endArrow=block;endFill=1;endSize=15;" edge="1" parent="1" source="18" target="5">
                    <mxGeometry relative="1" as="geometry">
                        <Array as="points">
                            <mxPoint x="400" y="260"/>
                            <mxPoint x="80" y="260"/>
                        </Array>
                    </mxGeometry>
                </mxCell>
                <mxCell id="18" value="ACK" style="ellipse;whiteSpace=wrap;html=1;aspect=fixed;fontSize=30;" vertex="1" parent="1">
                    <mxGeometry x="360" y="120" width="80" height="80" as="geometry"/>
                </mxCell>
                <mxCell id="21" value="reliable send(data)" style="text;html=1;strokeColor=none;fillColor=none;align=center;verticalAlign=middle;whiteSpace=wrap;rounded=0;fontSize=17;" vertex="1" parent="1">
                    <mxGeometry x="161.25" y="-10" width="158.75" height="20" as="geometry"/>
                </mxCell>
                <mxCell id="22" value="packet = add_codes(data)&lt;br&gt;unreliable send(packet)" style="text;html=1;strokeColor=none;fillColor=none;align=center;verticalAlign=middle;whiteSpace=wrap;rounded=0;fontSize=17;" vertex="1" parent="1">
                    <mxGeometry x="130" y="10" width="220" height="40" as="geometry"/>
                </mxCell>
                <mxCell id="23" value="" style="endArrow=none;html=1;fontSize=40;endSize=15;curved=1;entryX=1;entryY=0;entryDx=0;entryDy=0;exitX=0;exitY=0;exitDx=0;exitDy=0;" edge="1" parent="1" source="22" target="22">
                    <mxGeometry width="50" height="50" relative="1" as="geometry">
                        <mxPoint x="196.25" y="10" as="sourcePoint"/>
                        <mxPoint x="306.25" y="10" as="targetPoint"/>
                    </mxGeometry>
                </mxCell>
                <mxCell id="24" value="unreliable receive(response)&lt;br&gt;and response is ACK" style="text;html=1;strokeColor=none;fillColor=none;align=center;verticalAlign=middle;whiteSpace=wrap;rounded=0;fontSize=17;" vertex="1" parent="1">
                    <mxGeometry x="130" y="270" width="220" height="40" as="geometry"/>
                </mxCell>
                <mxCell id="26" value="" style="endArrow=none;html=1;fontSize=40;endSize=15;curved=1;entryX=1;entryY=0;entryDx=0;entryDy=0;exitX=0;exitY=0;exitDx=0;exitDy=0;" edge="1" parent="1">
                    <mxGeometry width="50" height="50" relative="1" as="geometry">
                        <mxPoint x="130.6300000000001" y="310" as="sourcePoint"/>
                        <mxPoint x="350.63000000000034" y="310" as="targetPoint"/>
                    </mxGeometry>
                </mxCell>
                <mxCell id="27" style="edgeStyle=orthogonalEdgeStyle;curved=1;html=1;fontSize=30;endArrow=block;endFill=1;endSize=15;" edge="1" parent="1" source="18" target="18">
                    <mxGeometry relative="1" as="geometry">
                        <Array as="points">
                            <mxPoint x="500" y="160"/>
                        </Array>
                    </mxGeometry>
                </mxCell>
                <mxCell id="29" value="unreliable send(packet)" style="text;html=1;strokeColor=none;fillColor=none;align=center;verticalAlign=middle;whiteSpace=wrap;rounded=0;fontSize=17;" vertex="1" parent="1">
                    <mxGeometry x="520" y="160" width="220" height="30" as="geometry"/>
                </mxCell>
                <mxCell id="30" value="" style="endArrow=none;html=1;fontSize=40;endSize=15;curved=1;entryX=1;entryY=0;entryDx=0;entryDy=0;exitX=0;exitY=0;exitDx=0;exitDy=0;" edge="1" parent="1" source="29" target="29">
                    <mxGeometry width="50" height="50" relative="1" as="geometry">
                        <mxPoint x="586.25" y="160" as="sourcePoint"/>
                        <mxPoint x="696.25" y="160" as="targetPoint"/>
                    </mxGeometry>
                </mxCell>
                <mxCell id="31" value="unreliable recieved(response)&lt;br&gt;and response is NACK" style="text;html=1;strokeColor=none;fillColor=none;align=center;verticalAlign=middle;whiteSpace=wrap;rounded=0;fontSize=17;" vertex="1" parent="1">
                    <mxGeometry x="520" y="120" width="230" height="40" as="geometry"/>
                </mxCell>
                <mxCell id="34" style="edgeStyle=orthogonalEdgeStyle;curved=1;html=1;fontSize=30;endArrow=block;endFill=1;endSize=15;" edge="1" parent="1" source="7" target="7">
                    <mxGeometry relative="1" as="geometry">
                        <Array as="points">
                            <mxPoint x="442.5" y="487.5"/>
                        </Array>
                    </mxGeometry>
                </mxCell>
                <mxCell id="35" value="unreliable receive(packet)&lt;br&gt;and packet is corrupted" style="text;html=1;strokeColor=none;fillColor=none;align=center;verticalAlign=middle;whiteSpace=wrap;rounded=0;fontSize=17;" vertex="1" parent="1">
                    <mxGeometry x="463.75" y="440" width="207.5" height="45" as="geometry"/>
                </mxCell>
                <mxCell id="36" value="unreliable send(NACK)" style="text;html=1;strokeColor=none;fillColor=none;align=center;verticalAlign=middle;whiteSpace=wrap;rounded=0;fontSize=17;" vertex="1" parent="1">
                    <mxGeometry x="452.5" y="485" width="230" height="20" as="geometry"/>
                </mxCell>
                <mxCell id="37" value="" style="endArrow=none;html=1;fontSize=40;endSize=15;curved=1;entryX=1;entryY=0;entryDx=0;entryDy=0;exitX=0;exitY=0;exitDx=0;exitDy=0;" edge="1" parent="1" source="36" target="36">
                    <mxGeometry width="50" height="50" relative="1" as="geometry">
                        <mxPoint x="500" y="485" as="sourcePoint"/>
                        <mxPoint x="610" y="485" as="targetPoint"/>
                    </mxGeometry>
                </mxCell>
                <mxCell id="38" value="unreliable receive(packet)&lt;br&gt;and packet is good" style="text;html=1;strokeColor=none;fillColor=none;align=center;verticalAlign=middle;whiteSpace=wrap;rounded=0;fontSize=17;" vertex="1" parent="1">
                    <mxGeometry x="51.25" y="440" width="207.5" height="45" as="geometry"/>
                </mxCell>
                <mxCell id="39" value="unreliable send(ACK)&lt;br&gt;reliable receive(packet)" style="text;html=1;strokeColor=none;fillColor=none;align=center;verticalAlign=middle;whiteSpace=wrap;rounded=0;fontSize=17;" vertex="1" parent="1">
                    <mxGeometry x="40" y="485" width="230" height="42.5" as="geometry"/>
                </mxCell>
                <mxCell id="40" value="" style="endArrow=none;html=1;fontSize=40;endSize=15;curved=1;entryX=1;entryY=0;entryDx=0;entryDy=0;exitX=0;exitY=0;exitDx=0;exitDy=0;" edge="1" parent="1" source="39" target="39">
                    <mxGeometry width="50" height="50" relative="1" as="geometry">
                        <mxPoint x="87.5" y="485" as="sourcePoint"/>
                        <mxPoint x="197.5" y="485" as="targetPoint"/>
                    </mxGeometry>
                </mxCell>
                <mxCell id="41" style="edgeStyle=orthogonalEdgeStyle;curved=1;html=1;fontSize=30;endArrow=block;endFill=1;endSize=15;" edge="1" parent="1" source="7" target="7">
                    <mxGeometry relative="1" as="geometry">
                        <Array as="points">
                            <mxPoint x="282.5" y="487.5"/>
                        </Array>
                    </mxGeometry>
                </mxCell>
            </root>
        </mxGraphModel>
    </diagram>
</mxfile>